<svg id="visual" viewBox="0 0 960 540" width="960" height="540" xmlns="http://www.w3.org/2000/svg" xmlns:xlink="http://www.w3.org/1999/xlink" version="1.1"><rect x="0" y="0" width="960" height="540" fill="#fff"></rect><path d="M0 499L69 499L69 433L137 433L137 437L206 437L206 378L274 378L274 407L343 407L343 500L411 500L411 501L480 501L480 445L549 445L549 426L617 426L617 467L686 467L686 411L754 411L754 383L823 383L823 455L891 455L891 486L960 486L960 472L960 541L960 541L891 541L891 541L823 541L823 541L754 541L754 541L686 541L686 541L617 541L617 541L549 541L549 541L480 541L480 541L411 541L411 541L343 541L343 541L274 541L274 541L206 541L206 541L137 541L137 541L69 541L69 541L0 541Z" fill="#00d1ff"></path><path d="M0 432L69 432L69 477L137 477L137 404L206 404L206 414L274 414L274 404L343 404L343 406L411 406L411 486L480 486L480 432L549 432L549 393L617 393L617 471L686 471L686 413L754 413L754 412L823 412L823 428L891 428L891 417L960 417L960 460L960 541L960 541L891 541L891 541L823 541L823 541L754 541L754 541L686 541L686 541L617 541L617 541L549 541L549 541L480 541L480 541L411 541L411 541L343 541L343 541L274 541L274 541L206 541L206 541L137 541L137 541L69 541L69 541L0 541Z" fill="#0dc7ff"></path><path d="M0 500L69 500L69 423L137 423L137 427L206 427L206 441L274 441L274 416L343 416L343 517L411 517L411 493L480 493L480 518L549 518L549 434L617 434L617 414L686 414L686 433L754 433L754 437L823 437L823 473L891 473L891 426L960 426L960 481L960 541L960 541L891 541L891 541L823 541L823 541L754 541L754 541L686 541L686 541L617 541L617 541L549 541L549 541L480 541L480 541L411 541L411 541L343 541L343 541L274 541L274 541L206 541L206 541L137 541L137 541L69 541L69 541L0 541Z" fill="#27bdfe"></path><path d="M0 485L69 485L69 453L137 453L137 458L206 458L206 521L274 521L274 521L343 521L343 430L411 430L411 512L480 512L480 438L549 438L549 453L617 453L617 424L686 424L686 498L754 498L754 445L823 445L823 485L891 485L891 517L960 517L960 502L960 541L960 541L891 541L891 541L823 541L823 541L754 541L754 541L686 541L686 541L617 541L617 541L549 541L549 541L480 541L480 541L411 541L411 541L343 541L343 541L274 541L274 541L206 541L206 541L137 541L137 541L69 541L69 541L0 541Z" fill="#3db3fb"></path><path d="M0 521L69 521L69 487L137 487L137 507L206 507L206 511L274 511L274 520L343 520L343 443L411 443L411 522L480 522L480 514L549 514L549 510L617 510L617 465L686 465L686 476L754 476L754 508L823 508L823 493L891 493L891 513L960 513L960 466L960 541L960 541L891 541L891 541L823 541L823 541L754 541L754 541L686 541L686 541L617 541L617 541L549 541L549 541L480 541L480 541L411 541L411 541L343 541L343 541L274 541L274 541L206 541L206 541L137 541L137 541L69 541L69 541L0 541Z" fill="#52a8f6"></path><path d="M0 458L69 458L69 468L137 468L137 507L206 507L206 489L274 489L274 484L343 484L343 507L411 507L411 484L480 484L480 489L549 489L549 483L617 483L617 463L686 463L686 519L754 519L754 521L823 521L823 467L891 467L891 453L960 453L960 502L960 541L960 541L891 541L891 541L823 541L823 541L754 541L754 541L686 541L686 541L617 541L617 541L549 541L549 541L480 541L480 541L411 541L411 541L343 541L343 541L274 541L274 541L206 541L206 541L137 541L137 541L69 541L69 541L0 541Z" fill="#649cef"></path><path d="M0 519L69 519L69 491L137 491L137 527L206 527L206 482L274 482L274 521L343 521L343 473L411 473L411 469L480 469L480 488L549 488L549 492L617 492L617 471L686 471L686 469L754 469L754 504L823 504L823 520L891 520L891 530L960 530L960 494L960 541L960 541L891 541L891 541L823 541L823 541L754 541L754 541L686 541L686 541L617 541L617 541L549 541L549 541L480 541L480 541L411 541L411 541L343 541L343 541L274 541L274 541L206 541L206 541L137 541L137 541L69 541L69 541L0 541Z" fill="#7490e6"></path><path d="M0 515L69 515L69 505L137 505L137 489L206 489L206 496L274 496L274 525L343 525L343 526L411 526L411 532L480 532L480 487L549 487L549 509L617 509L617 498L686 498L686 531L754 531L754 508L823 508L823 492L891 492L891 488L960 488L960 511L960 541L960 541L891 541L891 541L823 541L823 541L754 541L754 541L686 541L686 541L617 541L617 541L549 541L549 541L480 541L480 541L411 541L411 541L343 541L343 541L274 541L274 541L206 541L206 541L137 541L137 541L69 541L69 541L0 541Z" fill="#8384db"></path><path d="M0 530L69 530L69 506L137 506L137 509L206 509L206 522L274 522L274 522L343 522L343 512L411 512L411 527L480 527L480 508L549 508L549 526L617 526L617 526L686 526L686 531L754 531L754 516L823 516L823 527L891 527L891 495L960 495L960 528L960 541L960 541L891 541L891 541L823 541L823 541L754 541L754 541L686 541L686 541L617 541L617 541L549 541L549 541L480 541L480 541L411 541L411 541L343 541L343 541L274 541L274 541L206 541L206 541L137 541L137 541L69 541L69 541L0 541Z" fill="#8f78ce"></path><path d="M0 534L69 534L69 518L137 518L137 517L206 517L206 515L274 515L274 524L343 524L343 523L411 523L411 527L480 527L480 528L549 528L549 526L617 526L617 525L686 525L686 518L754 518L754 531L823 531L823 514L891 514L891 531L960 531L960 530L960 541L960 541L891 541L891 541L823 541L823 541L754 541L754 541L686 541L686 541L617 541L617 541L549 541L549 541L480 541L480 541L411 541L411 541L343 541L343 541L274 541L274 541L206 541L206 541L137 541L137 541L69 541L69 541L0 541Z" fill="#996bbf"></path></svg>